<svg width="33" height="34" viewBox="0 0 33 34" fill="none" xmlns="http://www.w3.org/2000/svg">
<path d="M28 1.99992C26.8952 2.0008 25.8359 2.44007 25.0547 3.22128C24.2735 4.00249 23.8342 5.06179 23.8333 6.16659C23.8333 6.76159 23.9633 7.32659 24.19 7.84159L20.9317 11.5066C19.8248 10.7426 18.5116 10.3333 17.1667 10.3333C15.9333 10.3333 14.7933 10.6933 13.8017 11.2766L10.0117 7.48825L9.97334 7.52659C10.3 6.86325 10.5 6.12492 10.5 5.33325C10.5 4.34435 10.2068 3.37765 9.65735 2.5554C9.10794 1.73316 8.32705 1.09229 7.41342 0.713857C6.49979 0.335418 5.49446 0.236402 4.52455 0.429328C3.55465 0.622254 2.66373 1.09846 1.96447 1.79772C1.26521 2.49698 0.789002 3.3879 0.596076 4.3578C0.40315 5.32771 0.502166 6.33304 0.880605 7.24667C1.25904 8.1603 1.89991 8.94119 2.72215 9.4906C3.5444 10.04 4.5111 10.3333 5.5 10.3333C6.29167 10.3333 7.02834 10.1333 7.69334 9.80659L7.655 9.84492L11.445 13.6333C10.8327 14.65 10.5063 15.8131 10.5 16.9999C10.5 18.6616 11.1333 20.1649 12.1417 21.3349L7.84667 25.6283C7.36528 25.4356 6.85185 25.3355 6.33334 25.3333C4.03667 25.3333 2.16667 27.2016 2.16667 29.4999C2.16667 31.7983 4.03667 33.6666 6.33334 33.6666C8.63 33.6666 10.5 31.7983 10.5 29.4999C10.5 28.9649 10.39 28.4566 10.205 27.9849L14.935 23.2549C15.6367 23.5049 16.38 23.6666 17.1667 23.6666C20.8433 23.6666 23.8333 20.6766 23.8333 16.9999C23.8333 15.9399 23.5617 14.9516 23.12 14.0599L26.6483 10.0883C27.075 10.2349 27.525 10.3333 28 10.3333C30.2983 10.3333 32.1667 8.46492 32.1667 6.16659C32.1667 3.86825 30.2983 1.99992 28 1.99992ZM17.1667 20.3333C15.3283 20.3333 13.8333 18.8383 13.8333 16.9999C13.8333 15.1616 15.3283 13.6666 17.1667 13.6666C19.005 13.6666 20.5 15.1616 20.5 16.9999C20.5 18.8383 19.005 20.3333 17.1667 20.3333Z" fill="white"/>
</svg>
