<svg width="32" height="32" viewBox="0 0 32 32" fill="none" xmlns="http://www.w3.org/2000/svg">
<path d="M14.3333 6.00008H19.3333L24.8166 0.500077C24.9716 0.343863 25.1559 0.219873 25.359 0.135258C25.5621 0.0506438 25.7799 0.00708008 26 0.00708008C26.22 0.00708008 26.4378 0.0506438 26.6409 0.135258C26.844 0.219873 27.0284 0.343863 27.1833 0.500077L31.4833 4.81674C31.7937 5.12901 31.968 5.55143 31.968 5.99174C31.968 6.43205 31.7937 6.85447 31.4833 7.16674L27.6666 11.0001H14.3333V14.3334C14.3333 14.7754 14.1577 15.1994 13.8451 15.5119C13.5326 15.8245 13.1087 16.0001 12.6666 16.0001C12.2246 16.0001 11.8007 15.8245 11.4881 15.5119C11.1756 15.1994 11 14.7754 11 14.3334V9.33341C11 8.44936 11.3512 7.60151 11.9763 6.97639C12.6014 6.35127 13.4492 6.00008 14.3333 6.00008ZM4.3333 14.3334V21.0001L0.516637 24.8167C0.206219 25.129 0.0319824 25.5514 0.0319824 25.9917C0.0319824 26.4321 0.206219 26.8545 0.516637 27.1667L4.81664 31.4834C4.97157 31.6396 5.15591 31.7636 5.35901 31.8482C5.56211 31.9328 5.77995 31.9764 5.99997 31.9764C6.21999 31.9764 6.43783 31.9328 6.64093 31.8482C6.84403 31.7636 7.02836 31.6396 7.1833 31.4834L14.3333 24.3334H21C21.442 24.3334 21.8659 24.1578 22.1785 23.8453C22.491 23.5327 22.6666 23.1088 22.6666 22.6667V21.0001H24.3333C24.7753 21.0001 25.1993 20.8245 25.5118 20.5119C25.8244 20.1994 26 19.7754 26 19.3334V17.6667H27.6666C28.1087 17.6667 28.5326 17.4911 28.8451 17.1786C29.1577 16.866 29.3333 16.4421 29.3333 16.0001V14.3334H17.6666V16.0001C17.6666 16.8841 17.3154 17.732 16.6903 18.3571C16.0652 18.9822 15.2174 19.3334 14.3333 19.3334H11C10.1159 19.3334 9.26807 18.9822 8.64295 18.3571C8.01783 17.732 7.66664 16.8841 7.66664 16.0001V11.0001L4.3333 14.3334Z" fill="#292E3D"/>
</svg>
